Coordinates
version=1
nRows=29
nColumns=24
inDegrees=yes

Units are S.I. units (second, meters, Newtons, ...)
Angles are in degrees.

endheader
time	pelvis_tilt	pelvis_list	pelvis_rotation	pelvis_tx	pelvis_ty	pelvis_tz	hip_flexion_r	hip_adduction_r	hip_rotation_r	knee_angle_r	ankle_angle_r	subtalar_angle_r	mtp_angle_r	hip_flexion_l	hip_adduction_l	hip_rotation_l	knee_angle_l	ankle_angle_l	subtalar_angle_l	mtp_angle_l	lumbar_extension	lumbar_bending	lumbar_rotation
      4.36500000	     -9.70913504	      4.15908755	     -9.45999327	     -0.59657387	     -0.05462326	      0.65642571	     -8.60464809	     -1.93768075	      8.00641661	    -12.22096382	     13.74549549	      0.95570516	      7.25849143	     38.92164811	     -2.67999090	    -20.30078482	    -14.78490164	     -5.91718118	     14.61953660	     13.34279114	      5.04734468	     -3.17810488	     12.42717794
      4.37000000	     -9.78871840	      4.61866703	     -9.41234255	     -0.58842399	     -0.05585696	      0.65631589	     -8.67213901	     -2.49151922	      7.80012394	    -12.86113379	     13.53962896	      1.17052174	      7.46228368	     39.03386905	     -2.18449810	    -20.25192167	    -15.31547560	     -6.71199461	     13.58085610	     14.25347368	      5.26583586	     -3.76241856	     12.31678738
      4.37500000	     -9.87914204	      5.10217580	     -9.47103737	     -0.58030358	     -0.05696788	      0.65631226	     -8.67261150	     -3.07970696	      7.79065927	    -13.56247157	     13.21918594	      1.33913895	      7.64025113	     39.18903399	     -1.74824956	    -20.16472123	    -16.00926484	     -7.45461050	     12.53801467	     14.67079074	      5.50762650	     -4.35579350	     12.34480303
      4.38000000	     -9.95076151	      5.59666884	     -9.35130684	     -0.57206107	     -0.05804312	      0.65609492	     -8.70286549	     -3.67427175	      7.50703125	    -14.29171315	     12.84235824	      1.63025875	      7.93242491	     39.38280538	     -1.19338010	    -19.85160895	    -16.80256897	     -8.30187905	     11.44535744	     15.35080972	      5.72600461	     -4.98756060	     12.15399274
      4.38500000	    -10.03113972	      6.10529137	     -9.33175313	     -0.56386224	     -0.05899869	      0.65598849	     -8.65434378	     -4.28803002	      7.41776432	    -15.11214344	     12.34656830	      1.85610209	      8.19404269	     39.62397327	     -0.70686170	    -19.55173039	    -17.74744338	     -9.00560966	     10.42825947	     15.61428767	      5.96139977	     -5.61539724	     12.10865816
      4.39000000	    -10.10368500	      6.61248456	     -9.21760866	     -0.55561044	     -0.05988749	      0.65578189	     -8.59118998	     -4.89760353	      7.17988257	    -16.00032619	     11.76535855	      2.16660351	      8.53121432	     39.90385467	     -0.16898720	    -19.11579661	    -18.79633267	     -9.63766004	      9.48151088	     15.80836309	      6.18328672	     -6.26574280	     11.93091649
      4.39500000	    -10.16579581	      7.09953030	     -9.08563452	     -0.54730423	     -0.06069079	      0.65552326	     -8.49908451	     -5.49608452	      6.88565300	    -16.96821226	     11.06050037	      2.55976676	      8.94850749	     40.20308641	      0.36002971	    -18.64861967	    -19.94445224	    -10.09728625	      8.60313636	     15.88961117	      6.39335759	     -6.89284697	     11.72342112
      4.40000000	    -10.22965770	      7.57088700	     -8.93110913	     -0.53896138	     -0.06141092	      0.65524390	     -8.36127728	     -6.07994998	      6.57964859	    -18.02403264	     10.23440388	      2.99714144	      9.40747920	     40.51719311	      0.88122949	    -18.18939090	    -21.15266196	    -10.39558405	      7.87077100	     15.84243507	      6.60297282	     -7.50676855	     11.49745331
      4.40500000	    -10.28681348	      7.99999037	     -8.75979170	     -0.53060430	     -0.06205848	      0.65492774	     -8.17769464	     -6.63054169	      6.21061893	    -19.18171270	      9.29914415	      3.53813255	      9.94138364	     40.82879677	      1.37469413	    -17.74711014	    -22.40899983	    -10.50824445	      7.23369112	     15.69333880	      6.79663919	     -8.07806102	     11.24570338
      4.41000000	    -10.31732555	      8.36957968	     -8.58466301	     -0.52228429	     -0.06260712	      0.65456222	     -7.95171405	     -7.13570494	      5.80430433	    -20.46556350	      8.25132783	      4.17077196	     10.58793264	     41.09405845	      1.82754585	    -17.33012436	    -23.66996407	    -10.41497644	      6.71530795	     15.43276197	      6.93696843	     -8.58109917	     11.00200500
      4.41500000	    -10.37418123	      8.71024322	     -8.38150672	     -0.51391883	     -0.06307803	      0.65424343	     -7.65306470	     -7.59871426	      5.42838870	    -21.84327050	      7.06794914	      4.77582385	     11.09463633	     41.34825924	      2.24599687	    -17.06330234	    -24.88928255	    -10.21002177	      6.37391557	     15.24767196	      7.10542014	     -9.06514183	     10.69537719
      4.42000000	    -10.40305335	      8.97423949	     -8.18726424	     -0.50560015	     -0.06334978	      0.65387295	     -7.32559804	     -8.01201980	      5.02470674	    -23.28869742	      5.71401848	      5.56297122	     11.72446725	     41.50627252	      2.62221628	    -16.72801498	    -26.01895930	     -9.88877837	      6.10263678	     14.97796326	      7.22433270	     -9.45915885	     10.42962025
      4.42500000	    -10.42451359	      9.21382153	     -7.97234832	     -0.49726881	     -0.06350998	      0.65352279	     -6.95382986	     -8.40049045	      4.61782964	    -24.81002729	      4.24488925	      6.28094693	     12.37904289	     41.58779931	      2.99062142	    -16.48328924	    -27.04923094	     -9.43790838	      5.93719261	     14.72106152	      7.33071145	     -9.83546475	     10.13998947
      4.43000000	    -10.43495258	      9.40499648	     -7.75207598	     -0.48901480	     -0.06353184	      0.65318199	     -6.53239673	     -8.74310826	      4.23064401	    -26.40462904	      2.67941214	      6.98583458	     13.00679489	     41.58425834	      3.32499200	    -16.29651216	    -27.96306176	     -8.89934470	      5.85093015	     14.54593933	      7.40521190	    -10.16754341	      9.84219646
      4.43500000	    -10.45076472	      9.57356308	     -7.51689312	     -0.48081113	     -0.06341992	      0.65278437	     -6.04507076	     -9.07294190	      3.83308305	    -28.05795676	      1.04235188	      7.68096480	     13.62257769	     41.50845829	      3.65875032	    -16.14713266	    -28.74518315	     -8.31287770	      5.83589845	     14.44260512	      7.47329166	    -10.46184035	      9.52987955
      4.44000000	    -10.47941544	      9.73387204	     -7.27774898	     -0.47264348	     -0.06318784	      0.65235573	     -5.48734252	     -9.40191503	      3.44521339	    -29.74060840	     -0.64633798	      8.27230287	     14.42764421	     41.35933053	      4.01395821	    -15.98588631	    -29.37858366	     -7.64799340	      5.78156225	     14.29217674	      7.55883911	    -10.74284961	      9.25180402
      4.44500000	    -10.46741712	      9.85619879	     -7.03090872	     -0.46470170	     -0.06278770	      0.65202369	     -4.89680125	     -9.67513550	      3.10445698	    -31.51750957	     -2.29551951	      8.79945386	     14.81081947	     41.10718644	      4.30823230	    -15.96702094	    -29.89533841	     -7.02537335	      5.98635173	     14.46318560	      7.55633356	    -11.00483230	      8.90406656
      4.45000000	    -10.51337163	     10.00299899	     -6.77630276	     -0.45679966	     -0.06234130	      0.65159201	     -4.17707625	     -9.98327257	      2.77035453	    -33.34071093	     -3.87389195	      9.27148835	     15.26094234	     40.84189294	      4.65004498	    -15.92449199	    -30.26835930	     -6.37953346	      6.12680710	     14.63058806	      7.62612358	    -11.26879486	      8.57646395
      4.45500000	    -10.52680081	     10.14907600	     -6.53465731	     -0.44902176	     -0.06178198	      0.65120468	     -3.42242409	    -10.28428563	      2.45843027	    -35.22500306	     -5.34074185	      9.52683234	     15.54019636	     40.48198009	      4.99241663	    -15.91644586	    -30.53109897	     -5.69643430	      6.31244771	     14.85666150	      7.65410044	    -11.53507799	      8.28098333
      4.46000000	    -10.57765128	     10.31997545	     -6.28681413	     -0.44134306	     -0.06115190	      0.65078620	     -2.56469854	    -10.60345658	      2.20166143	    -37.14918974	     -6.67080109	      9.66288074	     15.81534052	     40.10642092	      5.36177929	    -15.92366610	    -30.67749627	     -5.05501792	      6.54184072	     15.09853636	      7.71986744	    -11.81279381	      7.95949497
      4.46500000	    -10.63659741	     10.50556470	     -6.04670688	     -0.43377593	     -0.06045247	      0.65036315	     -1.63556172	    -10.92910627	      1.99209372	    -39.11257235	     -7.83480639	      9.59433837	     16.04744240	     39.69278882	      5.74671937	    -15.94395237	    -30.72815166	     -4.43031962	      6.78687890	     15.35316483	      7.79207268	    -12.09822647	      7.64715055
      4.47000000	    -10.70331362	     10.70804627	     -5.81363580	     -0.42630271	     -0.05969466	      0.64996539	     -0.64362600	    -11.26137781	      1.82114726	    -41.10394853	     -8.80872119	      9.30758607	     16.23099779	     39.24551715	      6.14619398	    -15.97707052	    -30.69149796	     -3.82880742	      7.05101752	     15.61524367	      7.87295430	    -12.39982632	      7.34059535
      4.47500000	    -10.85811480	     10.90660539	     -5.62624174	     -0.41896771	     -0.05896061	      0.64958618	      0.52317631	    -11.56961851	      1.75108685	    -43.12939713	     -9.61778358	      8.76683504	     16.48833848	     38.86872080	      6.49491376	    -16.08308019	    -30.59797421	     -3.28012035	      7.29266891	     15.97978761	      8.05711233	    -12.66502576	      7.10958815
      4.48000000	    -10.87966412	     11.14741877	     -5.37961946	     -0.41163037	     -0.05803987	      0.64920171	      1.53009751	    -11.93432344	      1.58516342	    -45.11136529	    -10.18551361	      8.01827668	     16.51655467	     38.29891556	      6.96516541	    -16.07835618	    -30.40336017	     -2.72341107	      7.59548666	     16.20632744	      8.08726585	    -13.01175503	      6.76315309
      4.48500000	    -10.94414812	     11.39136070	     -5.16773823	     -0.40436998	     -0.05710174	      0.64883965	      2.63821010	    -12.29478113	      1.46444149	    -47.09318093	    -10.61683572	      7.00785869	     16.47318439	     37.75776340	      7.41048949	    -16.12581878	    -30.17093910	     -2.21910345	      7.85440557	     16.42898609	      8.17203940	    -13.33657656	      6.47473308
      4.49000000	    -11.03961214	     11.60539709	     -4.99285700	     -0.39718568	     -0.05611694	      0.64857387	      3.81053062	    -12.59707057	      1.42138217	    -49.03172196	    -10.88400914	      5.76862815	     16.33877860	     37.21917483	      7.80865171	    -16.13520768	    -29.88071276	     -1.73651558	      8.09954631	     16.67401419	      8.29813815	    -13.62403946	      6.20060549
      4.49500000	    -11.06822985	     11.84562264	     -4.76582087	     -0.38994904	     -0.05500771	      0.64821534	      4.89256189	    -12.97634624	      1.23381478	    -50.88707605	    -11.03009329	      4.44543411	     16.16602584	     36.57611919	      8.29152274	    -16.07029380	    -29.52943018	     -1.28081256	      8.38128933	     16.83272567	      8.35261696	    -13.94951097	      5.90567075
      4.50000000	    -11.14475566	     11.98944169	     -4.59884353	     -0.38287973	     -0.05386100	      0.64798237	      6.06141112	    -13.20432831	      1.15284776	    -52.68161482	    -11.08995682	      2.80884862	     15.80248524	     35.98469428	      8.64010365	    -15.98902437	    -29.18568565	     -0.86280906	      8.55168781	     17.00018000	      8.44709015	    -14.15282647	      5.63031871
      4.50500000	    -11.16503975	     12.15768646	     -4.39983257	     -0.37569933	     -0.05258816	      0.64768405	      7.14278052	    -13.50415588	      0.97091480	    -54.35659859	    -11.07346775	      1.18686363	     15.44106290	     35.29659880	      9.05475741	    -15.87435619	    -28.78216216	     -0.46878970	      8.71506361	     17.08262688	      8.49402142	    -14.38936242	      5.27985463
